<svg width="28" height="26" viewBox="0 0 28 26" fill="none" xmlns="http://www.w3.org/2000/svg">
<path d="M5.46615 22.5606L7.4981 20.9351L7.51303 20.9236C7.93665 20.5847 8.15041 20.4137 8.38891 20.2918C8.60287 20.1825 8.83104 20.1029 9.06641 20.0546C9.3317 20.0002 9.60805 20.0002 10.1628 20.0002H21.7375C23.228 20.0002 23.9742 20.0002 24.544 19.7098C25.0458 19.4541 25.454 19.0458 25.7096 18.544C26 17.9741 26 17.2288 26 15.7383V5.59604C26 4.10549 26 3.3591 25.7096 2.78923C25.454 2.28746 25.045 1.87981 24.5432 1.62415C23.9728 1.3335 23.2271 1.3335 21.7336 1.3335H6.26693C4.77345 1.3335 4.02616 1.3335 3.45573 1.62415C2.95396 1.87981 2.54631 2.28746 2.29065 2.78923C2 3.35966 2 4.10695 2 5.60042V20.8951C2 22.316 2 23.0264 2.29128 23.3913C2.54459 23.7086 2.92858 23.8932 3.33464 23.8928C3.80153 23.8923 4.35658 23.4483 5.46615 22.5606Z" stroke="black" stroke-width="2.66667" stroke-linecap="round" stroke-linejoin="round"/>
</svg>
