<svg width="303" height="102" viewBox="0 0 303 102" fill="none" xmlns="http://www.w3.org/2000/svg">
<path fill-rule="evenodd" clip-rule="evenodd" d="M29.4327 0.243323C21.2711 1.10596 14.5323 4.03176 9.86607 8.73887C6.44858 12.1863 4.49928 16.0451 3.9263 20.496C2.74649 29.6614 10.3155 37.2539 25.5964 42.2338C31.503 44.1588 39.1598 47.7461 42.2068 50.0159C45.4964 52.4663 47.3764 54.9013 48.4911 58.156C49.1748 60.1524 49.2456 64.3599 48.6348 66.704C47.2746 71.9233 43.7114 75.2048 37.5993 76.8676C35.4831 77.4432 34.9859 77.4842 30.0076 77.4928C24.7516 77.502 24.6437 77.4921 21.9334 76.7515C20.4226 76.3388 18.478 75.6789 17.6121 75.285C11.728 72.6095 6.72062 67.3548 3.53753 60.5157L2.37027 58.0078L1.2719 58.0429C0.667674 58.0624 0.111509 58.1405 0.0357431 58.2165C-0.320828 58.5741 2.08401 71.8497 3.08743 75.0625L3.62703 76.7907L5.39331 77.4743C11.3319 79.7727 23.0964 81.3415 29.6525 80.709C33.4644 80.3414 47.1384 80.0482 61.6894 80.0223L73.6014 80.0009L73.5277 79.1105L73.4544 78.2201L72.0338 78.0505C63.0863 76.9835 60.5318 75.6426 60.8515 72.1804C61.0421 70.1165 62.8216 65.3396 65.5075 59.6823L66.6428 57.2905L69.8278 54.5615C81.6415 44.4383 90.571 40.1267 97.723 41.0924C99.5548 41.3399 101.932 42.2438 102.546 42.9269C102.738 43.1406 103.798 45.3458 104.902 47.8271C106.005 50.3084 108.597 55.7043 110.662 59.8181C114.942 68.3469 116.256 71.5823 116.288 73.6749C116.308 74.9714 116.256 75.1103 115.521 75.7257C115.088 76.0888 114.168 76.5641 113.476 76.7823C111.972 77.2568 108.397 77.8613 107.075 77.8644C106.554 77.8656 105.729 77.9779 105.24 78.1139C104.429 78.3398 104.352 78.4335 104.352 79.1962V80.0311L123.471 79.9261C148.317 79.7898 154.923 79.4567 164.653 77.8497C173.992 76.3075 181.38 74.0358 188.181 70.6154C192.775 68.3048 195.686 66.2502 199.252 62.8009L201.458 60.6677L201.331 65.4073C201.151 72.1249 200.693 73.6376 198.366 75.205C196.636 76.3701 194.117 76.9061 188.582 77.2867L186.274 77.4455V78.2483V79.0511H205.334H224.393V78.2422V77.4334L222.085 77.2845C214.42 76.7907 211.529 75.494 210.405 72.0465C210.177 71.3465 210.061 68.208 209.964 60.1146C209.891 54.0745 209.885 49.1345 209.951 49.1368C210.016 49.1392 210.495 49.5809 211.016 50.1187C212.173 51.3126 214.346 52.3792 216.341 52.7315C220.052 53.3871 225.504 51.6343 231.251 47.937C232.892 46.8811 233.235 46.7415 233.501 47.0217C233.673 47.2033 237.426 51.8933 241.842 57.4436C250.832 68.7441 252.428 70.6598 255.369 73.6792C260.085 78.5223 263.652 80.0403 270.445 80.0949C272.137 80.1085 277.252 79.9817 281.809 79.8131C286.367 79.6445 293 79.5595 296.548 79.6239L303 79.7409V78.8469V77.9527L299.347 77.6654C293.476 77.2038 290.425 76.1705 288.871 74.1182C287.115 71.7977 287.112 71.7454 287.188 41.6535C287.255 15.2783 287.259 15.0476 287.756 13.5975C288.032 12.7932 288.501 11.7922 288.798 11.3729C289.52 10.3571 291.179 9.32987 293.021 8.75906C294.793 8.20961 299.307 7.58014 301.473 7.58014H303V6.63036V5.68058H283.585H264.17V6.59427V7.50772L266.856 7.66158C272.489 7.98427 275.908 9.01027 277.401 10.8258C278.317 11.9413 279.038 14.2846 279.322 17.0779C279.629 20.0933 279.628 65.0409 279.32 68.6036C278.825 74.3421 277.741 75.9765 273.749 76.9998C272.973 77.1986 271.699 77.4277 270.918 77.5089C269.573 77.6488 269.417 77.6082 267.997 76.7546C265.189 75.0661 260.909 70.6741 256.581 65.0388C255.351 63.4365 252.684 60.0303 250.654 57.4695C246.74 52.5297 244.814 49.7758 241.7 44.6612L239.772 41.4956L242.642 38.5002C245.597 35.4163 247.316 33.3828 249.412 30.4936C251.919 27.0373 252.912 24.1588 252.764 20.7712C252.679 18.8263 252.569 18.3637 251.855 16.9533C249.542 12.3829 243.914 9.08673 234.443 6.75526C228.232 5.22635 228.037 5.21543 206.458 5.21044L186.984 5.20569V6.12484V7.04399L189.174 7.20664C198.664 7.9109 200.672 9.20569 201.188 14.9559C201.311 16.3188 201.415 17.9648 201.419 18.6133L201.427 19.7924L200.184 18.594C192.438 11.1273 182.845 7.70931 165.202 6.12888C163.33 5.96124 152.119 5.82281 134.718 5.75276L107.194 5.6414V6.59047V7.53954L109.029 7.68177C115.109 8.15238 117.46 8.78826 119.065 10.3972C121.157 12.4938 121.029 10.7308 121.107 38.448C121.169 60.3203 121.139 62.7339 120.814 62.2714C120.472 61.7844 113.248 47.1675 109.802 39.9914C108.924 38.1631 106.474 33.0877 104.357 28.7128C102.24 24.3378 100.002 19.6898 99.3832 18.3839C95.2213 9.59747 92.9114 4.81984 92.7343 4.63155C92.6102 4.49977 92.171 4.52137 91.6222 4.68616C90.6133 4.98938 91.3845 3.74564 83.35 18.0277C73.997 34.6534 58.1571 62.7524 58.0958 62.8267C58.0773 62.8493 58.1003 61.6656 58.1469 60.1968C58.3543 53.6431 55.3732 48.6871 48.5259 44.203C45.3804 42.1431 41.6987 40.4706 35.0981 38.1028C24.6268 34.3466 19.5221 31.7324 16.4255 28.5399C13.6465 25.6751 12.6166 23.0309 12.7605 19.1307C12.8408 16.9616 12.935 16.5223 13.6198 15.1273C15.4632 11.3721 19.6673 8.53111 25.509 7.09314C28.1234 6.44967 34.1981 6.20818 37.4999 6.61659C48.5446 7.98285 56.9742 13.068 57.8448 18.8897C58.1384 20.8538 56.6737 26.0581 54.7412 29.9168C53.5494 32.2972 52.4953 33.999 50.8547 36.1923L49.7893 37.617L51.0856 36.5485C53.2761 34.7432 57.0495 30.8334 58.5892 28.774C60.2726 26.5221 61.8075 23.5246 62.3239 21.4802C62.8396 19.4386 62.7897 16.2801 62.2148 14.605C60.7108 10.2212 55.3166 5.27811 49.3467 2.81295C43.6203 0.448238 36.3594 -0.488483 29.4327 0.243323ZM210.528 8.15452C210.083 8.48125 210.065 9.01265 209.951 25.7848C209.885 35.2962 209.862 44.173 209.9 45.5115L209.967 47.9446L210.901 48.4224C215.522 50.7866 223.089 49.3304 229.942 44.7574C233.44 42.4231 238.548 36.6655 240.826 32.4891C242.38 29.6409 242.93 27.7015 242.907 25.1511C242.866 20.7033 241.544 17.4106 238.607 14.4459C235.303 11.1093 230.701 9.14609 223.92 8.1804C220.502 7.69364 211.182 7.67559 210.528 8.15452ZM130.693 8.46415C130.25 8.51947 129.821 8.75241 129.682 9.01407C129.519 9.31872 129.46 19.4897 129.504 39.9261C129.575 73.7723 129.459 71.3912 131.138 73.4332C132.993 75.691 136.172 76.4271 144.84 76.6069C164.03 77.0046 177.973 73.215 187.616 64.9804C194.857 58.7971 198.851 49.5756 198.234 40.4663C197.434 28.6558 191.643 19.3237 181.775 13.9446C176.38 11.0036 168.208 9.29093 155.968 8.53562C152.311 8.31005 132.384 8.25377 130.693 8.46415ZM87.5901 18.2058C83.8929 24.4841 77.6847 35.7784 74.114 42.722C72.9387 45.0074 71.5178 47.7321 70.9567 48.7769C69.8365 50.8628 69.8077 50.8666 72.3629 48.5848C80.8256 41.0269 90.0496 36.7382 95.7327 37.7186C97.709 38.0596 99.4537 38.8227 100.634 39.862L101.511 40.6342L100.361 38.1757C99.0276 35.3263 94.8493 26.5777 91.674 19.9867C90.4627 17.4726 89.4181 15.4158 89.3523 15.4158C89.2867 15.4158 88.4936 16.6712 87.5901 18.2058ZM147.424 88.727C147.413 88.9555 147.328 89.7568 147.234 90.5079C147.141 91.2589 147.142 91.8732 147.238 91.8732C147.334 91.8732 147.716 91.4189 148.087 90.864C148.949 89.5747 149.773 89.2917 152.712 89.2746L155.021 89.2613V94.931C155.021 101.406 155.117 101.108 152.946 101.345C150.508 101.611 151.975 101.73 156.204 101.608C159.184 101.523 159.923 101.451 158.836 101.353C157.743 101.255 157.235 101.095 157.001 100.774C156.75 100.429 156.678 99.0948 156.678 94.771V89.2112L159.471 89.2957C162.624 89.3909 163.211 89.6215 163.875 91.0243C164.509 92.3633 164.748 92.0657 164.578 90.1517C164.494 89.2048 164.393 88.391 164.352 88.3433C164.312 88.2956 163.938 88.3758 163.521 88.5214C162.535 88.8662 148.484 88.8913 148.273 88.5489C148.032 88.1576 147.445 88.2806 147.424 88.727ZM85.1743 88.8878C82.2107 89.5483 80.6329 90.2794 79.0783 91.712C77.7754 92.9125 77.361 93.8264 77.361 95.4994C77.361 99.8668 83.4791 102.605 91.5798 101.864C95.6558 101.491 95.5305 101.544 96.3275 99.8549C97.4242 97.5296 97.2411 97.2126 95.7694 98.889C94.5292 100.302 92.9261 101.091 90.6065 101.43C86.8433 101.98 82.9864 100.89 81.0491 98.7292C79.0707 96.5224 78.9926 93.6668 80.854 91.6006C82.6196 89.6407 85.1251 88.9146 89.5877 89.0699C93.0281 89.1896 94.2513 89.6702 95.4086 91.3572C95.8179 91.9539 96.193 92.3208 96.2422 92.1726C96.3258 91.9211 95.9103 89.2639 95.7647 89.1176C95.7282 89.0813 95.0087 88.9391 94.1656 88.8021C92.1376 88.472 86.8116 88.5228 85.1743 88.8878ZM106.01 88.9982C101.821 90.1436 99.3803 92.5297 99.3803 95.48C99.3803 100.567 107.942 103.6 115.291 101.118C120.472 99.3672 122.443 94.978 119.491 91.7663C118.342 90.5159 116.28 89.3885 114.275 88.9146C112.171 88.4174 107.979 88.4599 106.01 88.9982ZM107.721 89.0749C106.107 89.2893 104.132 90.103 103.123 90.9695C102.221 91.7442 101.523 93.4334 101.516 94.8541C101.51 96.3478 102.378 98.193 103.588 99.2587C106.705 102.003 112.763 102.329 116.499 99.9522C117.797 99.1264 118.789 97.356 118.793 95.8587C118.796 94.6981 118.181 92.8973 117.45 91.9235C115.812 89.7428 111.717 88.544 107.721 89.0749ZM124.336 89.0374C126.218 89.3534 126.237 89.4004 126.372 94.1959C126.516 99.3356 126.675 99.7191 129.163 100.948C130.692 101.703 130.833 101.727 133.706 101.727C137.522 101.727 139.025 101.284 140.617 99.6899C141.969 98.3367 142.229 97.4866 142.244 94.3663C142.257 91.8228 142.5 90.0883 142.9 89.687C143.036 89.5502 143.715 89.3009 144.408 89.1326C145.591 88.8455 145.423 88.8268 141.643 88.8256L137.618 88.8241L139.157 89.1582C140.005 89.3422 140.828 89.6723 140.989 89.8929C141.461 90.5387 141.591 91.7426 141.48 94.4492C141.388 96.6957 141.295 97.1392 140.681 98.2842C140.099 99.3681 139.76 99.6941 138.601 100.287C137.323 100.941 137.032 100.994 134.813 100.977C131.291 100.95 129.342 100.092 128.48 98.189C128.112 97.3748 128.039 96.6093 128.034 93.5049C128.028 89.3059 128.013 89.3437 129.85 89.034C130.656 88.8982 129.848 88.8422 127.082 88.8422C124.26 88.8422 123.498 88.8963 124.336 89.0374ZM167.451 89.058C169.36 89.4102 169.463 89.6564 169.465 93.8585C169.466 98.2398 169.633 98.9258 170.992 100.125C172.325 101.302 173.305 101.615 176.174 101.778C179.874 101.99 182.615 101.135 184.124 99.3014C185.039 98.1892 185.32 97.2143 185.34 95.0787C185.349 94.1645 185.435 92.6316 185.53 91.6721C185.724 89.729 185.85 89.5804 187.694 89.106C188.622 88.8674 188.239 88.8315 184.735 88.8279C180.724 88.8241 180.715 88.8253 182.235 89.1559C184.497 89.6476 184.498 89.65 184.498 93.6034C184.498 96.6456 184.444 97.0875 183.954 98.0871C183.349 99.3173 182.321 100.215 181.065 100.609C178.596 101.384 175.087 101.108 173.252 99.9938C172.543 99.5636 172.008 98.9937 171.653 98.2904C171.169 97.3285 171.121 96.9001 171.121 93.5142C171.121 89.3057 171.105 89.3434 172.942 89.034C173.749 88.898 172.944 88.8419 170.174 88.8408C167.099 88.8398 166.519 88.8861 167.451 89.058ZM191.838 89.0504C192.489 89.1777 193.155 89.4579 193.318 89.673C193.748 90.2419 193.738 100.16 193.306 100.752C193.117 101.012 192.503 101.246 191.708 101.361C190.77 101.498 191.486 101.549 194.324 101.547C196.67 101.546 197.77 101.481 197.077 101.385C195.468 101.161 195.271 100.801 195.271 98.0895V95.8487L197.144 95.9575L199.016 96.0662L201.336 98.2498C204.146 100.894 205.859 101.847 207.798 101.843L209.122 101.841L207.891 101.267C206.291 100.519 204.292 99.0312 202.377 97.1608L200.841 95.6609L202.377 94.8949C204.146 94.0126 204.846 93.0158 204.645 91.6656C204.492 90.6399 203.942 90.0292 202.611 89.4056C201.636 88.949 201.084 88.903 196.1 88.8628C192.014 88.8301 190.95 88.8769 191.838 89.0504ZM211.681 89.034C213.572 89.3527 213.502 89.1145 213.502 95.2131C213.502 100.543 213.494 100.638 212.976 101.001C212.686 101.205 211.973 101.371 211.389 101.371C210.806 101.371 210.43 101.451 210.554 101.549C210.678 101.647 214.029 101.695 218.001 101.656L225.222 101.585L225.728 100.053C226.007 99.2109 226.143 98.5216 226.029 98.5216C225.916 98.5216 225.387 98.997 224.853 99.578C224.319 100.159 223.491 100.764 223.013 100.923C221.798 101.326 217.131 101.335 216.188 100.936C215.274 100.549 215.167 100.179 215.163 97.3938L215.159 95.1974H217.847C220.877 95.1974 221.842 95.4356 222.225 96.2778C222.717 97.3608 222.973 96.9099 222.973 94.96C222.973 93.9152 222.918 93.0604 222.851 93.0604C222.784 93.0604 222.42 93.4075 222.042 93.8321L221.354 94.6038L218.257 94.6869L215.159 94.7702V91.994V89.2178L218.663 89.2988C222.603 89.3902 223.215 89.5992 223.824 91.0606C224.01 91.5075 224.268 91.8732 224.396 91.8732C224.668 91.8732 224.688 91.4121 224.48 89.8881L224.329 88.7864L217.436 88.8144C213.06 88.832 210.958 88.9122 211.681 89.034ZM195.685 89.1732C195.318 89.2822 195.271 89.6486 195.271 92.3918V95.4873L197.816 95.3995C200.786 95.2971 201.754 94.8923 202.458 93.4591C203.291 91.7604 202.364 90.0712 200.292 89.512C199.22 89.2228 196.254 89.0046 195.685 89.1732Z" fill="white"/>
</svg>
