<svg width="26" height="26" viewBox="0 0 26 26" fill="none" xmlns="http://www.w3.org/2000/svg">
<path d="M12.9988 0.200195C16.4743 0.2002 16.9093 0.215234 18.2742 0.277344C19.6367 0.339735 20.5676 0.555609 21.3835 0.87207C22.2262 1.19874 22.9381 1.63664 23.6501 2.34863C24.362 3.05997 24.7997 3.77358 25.1277 4.61523C25.4424 5.42911 25.6584 6.35998 25.7224 7.72266C25.7837 9.08777 25.7996 9.5242 25.7996 13C25.7996 16.4763 25.7837 16.912 25.7224 18.2773C25.6584 19.6394 25.4423 20.5697 25.1277 21.3838C24.7997 22.2254 24.3622 22.9399 23.6501 23.6514C22.9391 24.3632 22.226 24.802 21.3845 25.1289C20.5702 25.4454 19.6386 25.6603 18.2761 25.7227C16.911 25.7848 16.4759 25.8008 12.9998 25.8008C9.52391 25.8008 9.08758 25.7848 7.72241 25.7227C6.36011 25.6603 5.42935 25.4454 4.61499 25.1289C3.77373 24.802 3.05953 24.3633 2.34839 23.6514C1.63668 22.9399 1.19903 22.2256 0.871826 21.3838C0.555589 20.57 0.339792 19.6398 0.2771 18.2773C0.215232 16.912 0.199951 16.4763 0.199951 13C0.199952 9.524 0.216034 9.08698 0.2771 7.72168C0.338462 6.35978 0.554525 5.42928 0.871826 4.61523C1.19981 3.77374 1.63745 3.06003 2.34937 2.34863C3.06084 1.63689 3.77507 1.19901 4.61694 0.87207C5.43072 0.555619 6.36093 0.339734 7.72339 0.277344C9.08829 0.21523 9.52479 0.200202 12.9988 0.200195ZM11.8533 2.50391C9.46765 2.50657 9.00967 2.52284 7.82886 2.57617C6.5809 2.6335 5.90311 2.8406 5.4519 3.0166C4.85468 3.24909 4.42813 3.52676 3.98022 3.97461C3.53222 4.42261 3.25422 4.84993 3.02222 5.44727C2.84705 5.89844 2.63886 6.57564 2.58179 7.82324C2.52045 9.17258 2.50757 9.57602 2.50757 12.9941C2.50757 16.4123 2.52045 16.8177 2.58179 18.167C2.63859 19.415 2.84702 20.0923 3.02222 20.543C3.25475 21.1406 3.53222 21.5666 3.98022 22.0146C4.4281 22.4625 4.85473 22.7397 5.4519 22.9717C5.90338 23.1469 6.58084 23.3555 7.82886 23.4131C9.17812 23.4744 9.58324 23.4873 13.0007 23.4873C16.4184 23.4873 16.8242 23.4744 18.1736 23.4131C19.4212 23.356 20.0989 23.1476 20.5496 22.9717C21.1472 22.7397 21.5732 22.4627 22.0212 22.0146C22.4692 21.5669 22.7473 21.1412 22.9792 20.5439C23.1544 20.0933 23.3626 19.4157 23.4197 18.168C23.481 16.8187 23.4939 16.413 23.4939 12.9971C23.4939 9.58173 23.481 9.17607 23.4197 7.82715C23.3629 6.57914 23.1544 5.90087 22.9792 5.4502C22.7467 4.85302 22.4691 4.42643 22.0212 3.97852C21.5735 3.53051 21.1469 3.25349 20.5496 3.02148C20.0984 2.84631 19.4212 2.63714 18.1736 2.58008C16.824 2.51874 16.4184 2.50684 13.0007 2.50684C12.5739 2.50684 12.1939 2.5063 11.8533 2.50684V2.50391ZM13.0007 6.42676C16.6308 6.42676 19.5738 9.36998 19.574 13C19.574 16.6302 16.6309 19.5723 13.0007 19.5723C9.37075 19.572 6.42749 16.63 6.42749 13C6.42767 9.37012 9.37086 6.42698 13.0007 6.42676ZM13.0007 8.7334C10.6445 8.73362 8.73431 10.6437 8.73413 13C8.73413 15.3562 10.6444 17.2664 13.0007 17.2666C15.357 17.2666 17.2683 15.3563 17.2683 13C17.2681 10.6436 15.3569 8.7334 13.0007 8.7334ZM19.8337 4.63184C20.6817 4.63184 21.3699 5.31996 21.3699 6.16797C21.3697 7.01587 20.6817 7.7041 19.8337 7.7041C18.9858 7.70409 18.2977 7.01586 18.2976 6.16797C18.2976 5.37281 18.9023 4.71936 19.6765 4.64062L19.8337 4.63184Z" fill="#5E3C32"/>
</svg>
