<svg width="28" height="27" viewBox="0 0 28 27" fill="none" xmlns="http://www.w3.org/2000/svg">
<path d="M3.33333 10.3335L11.4768 16.4831L11.4796 16.4853C12.3838 17.1484 12.8362 17.4802 13.3317 17.6084C13.7696 17.7216 14.23 17.7216 14.668 17.6084C15.1639 17.4801 15.6176 17.1474 16.5234 16.4831L24.6667 10.3335M24.4002 9.05275L16.9349 3.07559C16.008 2.33343 15.5441 1.96248 15.0286 1.81517C14.5738 1.6852 14.0923 1.67831 13.634 1.79564C13.1147 1.92862 12.6412 2.28647 11.694 3.00267L3.69271 9.05305C3.07173 9.52262 2.76164 9.75755 2.53776 10.0543C2.33947 10.3171 2.1917 10.6144 2.10166 10.9311C2 11.2886 2 11.6779 2 12.4564V20.7336C2 22.2271 2 22.9742 2.29065 23.5446C2.54631 24.0464 2.95396 24.454 3.45573 24.7097C4.0256 25.0001 4.77199 25.0001 6.26255 25.0001H21.7375C23.228 25.0001 23.9733 25.0001 24.5432 24.7097C25.045 24.454 25.454 24.0461 25.7096 23.5443C26 22.9744 26 22.2287 26 20.7382V12.3688C26 11.6259 26 11.2522 25.9049 10.907C25.8202 10.5991 25.6794 10.309 25.492 10.0504C25.2806 9.75852 24.9878 9.52319 24.4002 9.05275Z" stroke="black" stroke-width="2.66667" stroke-linecap="round" stroke-linejoin="round"/>
</svg>
