<svg width="28" height="24" viewBox="0 0 28 24" fill="none" xmlns="http://www.w3.org/2000/svg">
<path d="M0.938252 11.1738C3.74385 9.62848 6.87565 8.33864 9.80185 7.04224C14.8361 4.91884 19.8903 2.83224 24.9955 0.889636C25.9887 0.558656 27.7735 0.235017 27.9485 1.70696C27.8526 3.79056 27.4584 5.86196 27.188 7.93336C26.5018 12.4886 25.7085 17.0282 24.935 21.5684C24.6685 23.0807 22.774 23.8636 21.5618 22.8957C18.6486 20.928 15.713 18.9793 12.837 16.9659C11.8949 16.0087 12.7686 14.6339 13.6099 13.9503C16.0093 11.5857 18.5539 9.57674 20.8279 7.08994C21.4413 5.60872 19.6289 6.85704 19.0311 7.23957C15.7463 9.50317 12.5419 11.905 9.07869 13.8944C7.30969 14.8681 5.24789 14.036 3.47969 13.4926C1.89431 12.8362 -0.428908 12.1749 0.938092 11.174L0.938252 11.1738Z" fill="#5E3C32"/>
</svg>
